HIERARCHY
ROOT Hips
{
	OFFSET -3.958830 18.904000 13.208200
	CHANNELS 6 Xposition Yposition Zposition Zrotation Yrotation Xrotation 
	JOINT LHipJoint
	{
		OFFSET 0.000000 0.000000 0.000000
		CHANNELS 3 Zrotation Yrotation Xrotation
		JOINT LeftUpLeg
		{
			OFFSET 1.800000 -1.400000 0.085000
			CHANNELS 3 Zrotation Yrotation Xrotation
			JOINT LeftLeg
			{
				OFFSET 2.215000 -6.000000 0.000000
				CHANNELS 3 Zrotation Yrotation Xrotation
				JOINT LeftFoot
				{
					OFFSET 2.500000 -6.900000 0.000000
					CHANNELS 3 Zrotation Yrotation Xrotation
					JOINT LeftToeBase
					{
						OFFSET 0.200000 -0.500000 1.950000
						CHANNELS 3 Zrotation Yrotation Xrotation
						End Site
						{
							OFFSET 0.000000 0.000000 0.000000
						}
					}
				}
			}
		}
	}
	JOINT RHipJoint
	{
		OFFSET 0.000000 0.000000 0.000000
		CHANNELS 3 Zrotation Yrotation Xrotation
		JOINT RightUpLeg
		{
			OFFSET -1.800000 -1.400000 0.085000
			CHANNELS 3 Zrotation Yrotation Xrotation
			JOINT RightLeg
			{
				OFFSET -2.215000 -6.000000 0.000000
				CHANNELS 3 Zrotation Yrotation Xrotation
				JOINT RightFoot
				{
					OFFSET -2.500000 -6.900000 0.000000
					CHANNELS 3 Zrotation Yrotation Xrotation
					JOINT RightToeBase
					{
						OFFSET -0.200000 -0.500000 1.950000
						CHANNELS 3 Zrotation Yrotation Xrotation
						End Site
						{
							OFFSET 0.000000 0.000000 0.000000
						}
					}
				}
			}
		}
	}
	JOINT LowerBack
	{
		OFFSET 0.000000 0.000000 0.000000
		CHANNELS 3 Zrotation Yrotation Xrotation
		JOINT Spine
		{
			OFFSET -0.087000 1.940000 -0.288900
			CHANNELS 3 Zrotation Yrotation Xrotation
			JOINT Spine1
			{
				OFFSET 0.000000 1.950000 0.060000
				CHANNELS 3 Zrotation Yrotation Xrotation
				JOINT Neck
				{
					OFFSET 0.000000 0.000000 0.000000
					CHANNELS 3 Zrotation Yrotation Xrotation
					JOINT Neck1
					{
						OFFSET 0.000000 1.600000 0.340000
						CHANNELS 3 Zrotation Yrotation Xrotation
						JOINT Head
						{
							OFFSET 0.000000 1.667000 -0.240000
							CHANNELS 3 Zrotation Yrotation Xrotation
							End Site
							{
								OFFSET 0.000000 0.000000 0.000000
							}
						}
					}
				}
				JOINT LeftShoulder
				{
					OFFSET 0.000000 0.000000 0.000000
					CHANNELS 3 Zrotation Yrotation Xrotation
					JOINT LeftArm
					{
						OFFSET 2.700000 1.550000 -0.730000
						CHANNELS 3 Zrotation Yrotation Xrotation
						JOINT LeftForeArm
						{
							OFFSET 5.450000 0.000000 0.000000
							CHANNELS 3 Zrotation Yrotation Xrotation
							JOINT LeftHand
							{
								OFFSET 3.450000 0.000000 0.000000
								CHANNELS 3 Zrotation Yrotation Xrotation
								JOINT LeftHandIndex1
								{
									OFFSET 0.750000 0.000000 0.000000
									CHANNELS 3 Zrotation Yrotation Xrotation
									End Site
									{
										OFFSET 0.000000 0.000000 0.000000
									}
								}
							}
						}
					}
				}
				JOINT RightShoulder
				{
					OFFSET 0.000000 0.000000 0.000000
					CHANNELS 3 Zrotation Yrotation Xrotation
					JOINT RightArm
					{
						OFFSET -2.700000 1.550000 -0.730000
						CHANNELS 3 Zrotation Yrotation Xrotation
						JOINT RightForeArm
						{
							OFFSET -5.450000 0.000000 0.000000
							CHANNELS 3 Zrotation Yrotation Xrotation
							JOINT RightHand
							{
								OFFSET -3.450000 0.000000 0.000000
								CHANNELS 3 Zrotation Yrotation Xrotation
								JOINT RightHandIndex1
								{
									OFFSET -0.750000 0.000000 0.000000
									CHANNELS 3 Zrotation Yrotation Xrotation
									End Site
									{
										OFFSET 0.000000 0.000000 0.000000
									}
								}
							}
						}
					}
				}
			}
		}
	}
}
MOTION
Frames: 8
Frame Time: 0.016667
0.679810 17.397740 -4.928710 2.323353 -5.171534 8.397265 -15.283613 12.363324 3.609458 1.740572 -7.316425 -27.875089 -9.235014 9.605188 35.493472 -1.154745 7.900207 2.227355 0.365330 -0.057600 -0.310800 18.460132 -9.793380 2.735791 -2.186130 4.321148 -32.687783 3.395219 -4.689562 20.155042 0.265399 -3.264252 3.692586 0.554190 1.454030 0.163880 -3.719023 -2.174437 -6.674696 10.259742 -4.262222 2.523517 -5.532312 -2.201344 12.458109 -1.286398 -8.049223 -6.196587 -14.018196 7.826083 17.868909 -3.144340 -0.966160 -4.254640 -9.502727 9.340007 2.518509 -46.774011 5.221895 -4.234108 158.454910 -72.996765 -164.517294 -4.527471 3.269435 0.470650 0.978740 -0.935490 0.548950 11.962158 -4.607027 2.016504 34.193496 -12.327745 -10.226849 18.156418 29.995230 1.562187 0.793893 -1.663855 -0.917540 1.030770 0.490900 -0.289330 
0.726670 17.279890 -4.928530 2.646373 -5.071598 8.779689 -15.288976 12.363232 3.461359 1.439426 -6.961602 -27.087753 -8.976189 9.214213 34.123314 -1.278216 7.662015 2.290221 0.442050 0.040620 -0.284130 18.479161 -9.657414 2.922405 -2.321992 4.847277 -35.994883 3.215104 -5.184386 23.819481 0.214167 -3.663288 3.487957 0.654300 1.471720 0.200630 -3.745414 -2.258800 -6.638448 10.779580 -5.319803 1.869506 -5.760241 -3.170603 12.675495 -1.609842 -8.366355 -5.969285 -14.599847 8.857324 17.054268 -3.259610 -0.761670 -4.299380 -9.631014 9.245751 2.367260 -45.282451 5.379128 -4.095203 155.765444 -75.732927 -161.943621 -4.600585 3.330507 0.417430 1.022620 -0.959220 0.555900 12.812526 -4.461757 1.836130 30.352974 -12.587073 -9.275757 21.428860 34.172938 2.925904 0.690972 -1.839347 -0.901120 1.026200 0.490160 -0.286240 
0.781970 17.163070 -4.942110 2.367270 -4.714043 8.618097 -15.260282 12.341712 3.281569 1.504619 -6.585266 -26.275892 -8.177880 8.755622 33.388093 -1.362719 7.393636 2.356997 0.545150 0.146740 -0.211040 18.537437 -9.506144 3.200377 -2.047660 5.585386 -39.867850 1.986753 -5.867966 29.875936 0.034827 -4.343941 3.198595 0.707950 1.401500 0.205380 -3.878505 -2.310546 -6.697193 12.484572 -6.702552 2.496601 -6.463074 -4.276609 12.511409 -1.771594 -9.118158 -5.912775 -16.147964 9.812134 16.885429 -2.777190 -0.593410 -5.926760 -9.819691 8.936885 2.182164 -43.945636 5.453569 -4.636100 156.494444 -79.855775 -164.130620 -4.513490 3.330364 0.478780 0.958510 -0.892720 0.575450 13.306896 -3.996495 1.850851 27.221378 -12.638297 -8.753642 24.730424 38.643088 4.785835 0.644303 -1.939757 -0.876800 1.027650 0.440670 -0.298370 
0.844510 17.046030 -4.960190 1.763675 -3.838794 7.802282 -15.213796 12.278807 3.078859 2.002675 -6.274000 -25.196510 -7.558818 8.555067 33.320480 -1.363674 7.252653 2.394882 0.605840 0.190490 -0.123990 18.622671 -9.301448 3.568779 -1.876142 6.450893 -44.298997 -0.034828 -6.757076 38.102974 -0.266805 -5.473124 2.779790 0.684770 1.296380 0.188880 -4.075609 -2.373827 -6.880108 14.761963 -8.556857 4.425297 -7.699724 -5.685438 11.783004 -1.555539 -9.884307 -6.003459 -17.776294 10.343371 17.048167 -2.457460 -0.352850 -8.218150 -10.594048 8.068532 1.931077 -41.575701 5.784917 -5.540648 156.365146 -84.494657 -165.245886 -4.381882 3.247234 0.599840 0.843700 -0.782650 0.581470 13.613179 -3.228958 2.054916 24.786394 -12.302963 -8.484335 28.101324 43.114345 7.096778 0.663724 -1.962682 -0.857160 1.032390 0.381340 -0.319570 
0.899770 16.939320 -4.997100 0.848260 -3.047137 5.995005 -15.163476 12.259809 2.924611 3.038672 -6.139197 -23.931410 -7.164623 8.731777 34.454399 -1.243432 7.282466 2.313905 0.640250 0.221400 -0.032360 18.696025 -9.065326 3.958511 -1.789142 7.316305 -48.106219 -1.721938 -7.801798 46.594392 -0.646622 -6.774430 2.315953 0.605920 1.074960 0.155640 -4.250771 -2.590186 -7.223448 16.555637 -10.675687 8.746547 -8.582426 -7.269510 10.201390 -1.049927 -10.681333 -6.268046 -19.727403 10.988088 17.915495 -2.131820 0.466620 -11.822460 -11.995236 6.778198 1.606348 -38.908427 6.157128 -7.069834 163.411389 -89.446086 -173.088732 -4.150133 3.151003 0.742890 0.648640 -0.613760 0.538680 13.975702 -2.136575 2.369271 22.926071 -11.578158 -8.504988 31.041814 47.747934 9.769226 0.767427 -1.937995 -0.786410 0.963760 0.316830 -0.353150 
0.956220 16.854570 -5.051480 -0.030988 -3.513328 3.170931 -15.123473 12.317691 2.779966 4.166894 -5.822268 -21.672322 -7.423027 9.281608 35.580302 -1.068889 7.486784 2.218161 0.631600 0.180020 0.020460 18.730002 -8.851156 4.378582 -1.484157 8.571803 -51.017764 -3.592294 -8.365936 54.697003 -1.045456 -8.058476 1.900157 0.479120 0.908650 0.151560 -4.337954 -2.845925 -7.656519 17.409482 -12.501793 15.479151 -8.957990 -8.454181 7.751936 -0.283135 -11.431325 -6.795589 -21.686113 11.364866 19.186359 -1.975310 0.930630 -15.300190 -14.324630 4.888218 1.344512 -35.680294 6.749021 -8.178592 -18.293112 -85.661932 7.951684 -3.971754 3.076879 0.894640 0.475700 -0.463910 0.512590 14.859772 -0.315894 2.949349 21.555197 -11.019485 -8.930672 32.814614 53.610395 12.576193 0.892761 -1.902636 -0.729960 0.894310 0.271600 -0.369780 
1.006290 16.784440 -5.112770 -0.980206 -4.759403 0.046609 -15.139047 12.352708 2.676146 5.891441 -5.552515 -19.243038 -8.684566 10.421598 36.942642 -0.851066 7.890192 2.006276 0.681590 0.219390 0.090490 18.716471 -8.562420 4.786569 -0.591772 10.414349 -53.218507 -5.532934 -8.378612 62.370835 -1.463953 -9.242625 1.513448 0.399740 0.696310 0.179640 -4.274172 -3.149939 -8.046648 17.284634 -14.041999 23.265593 -8.765881 -9.297624 5.225592 0.507074 -11.993562 -7.534722 -23.288217 12.064961 19.877078 -1.663120 1.395950 -20.198260 -16.446743 2.457185 1.256089 -32.643112 7.341035 -9.445918 -14.647602 -79.766042 4.474485 -3.751029 3.067874 1.021060 0.288540 -0.294160 0.482890 15.647121 2.133176 3.819685 21.031084 -10.824581 -9.798656 34.064019 60.378085 15.415422 1.020657 -1.893291 -0.621910 0.778890 0.215630 -0.379690 
1.035800 16.718000 -5.176100 -1.377232 -7.129733 -2.211108 -15.207514 12.277425 2.631256 7.342733 -5.325316 -17.674901 -10.661138 11.961097 38.024567 -0.661332 8.400684 1.783707 0.703030 0.230320 0.144350 18.687066 -8.124280 5.230015 0.309495 13.007141 -55.419187 -7.366841 -7.747090 69.067526 -1.814343 -10.228739 1.229617 0.337810 0.550350 0.183190 -4.136026 -3.476023 -8.384966 15.936203 -14.348023 29.783230 -8.083729 -9.237325 3.410870 1.088839 -12.246459 -8.420664 -24.255921 12.754075 20.177337 -1.945290 1.827700 -24.627310 -17.967529 -0.173179 1.459230 -30.347403 7.782754 -10.185637 -12.640367 -73.007419 2.832144 -3.590718 3.023004 1.122630 0.156590 -0.183330 0.447120 16.252093 4.964128 4.932168 22.106446 -11.109453 -11.328726 34.318093 68.294837 18.001182 1.097891 -1.852691 -0.564970 0.721900 0.190710 -0.398790 
